<?xml version="1.0" encoding="utf-8"?>
<!-- Generator: Adobe Illustrator 27.8.1, SVG Export Plug-In . SVG Version: 6.00 Build 0)  -->
<svg version="1.1" id="_レイヤー_1" xmlns="http://www.w3.org/2000/svg" xmlns:xlink="http://www.w3.org/1999/xlink" x="0px"
	 y="0px" viewBox="0 0 59.9 75.1" style="enable-background:new 0 0 59.9 75.1;" xml:space="preserve">
<style type="text/css">
	.st0{fill:#FFFFFF;}
</style>
<path class="st0" d="M30,0C13.4,0,0,13.4,0,30c0,15,11,27.3,25.3,29.6V38.6h-7.6V30h7.6v-6.6c0-7.5,4.5-11.7,11.3-11.7
	c3.3,0,6.7,0.6,6.7,0.6v7.4h-3.8c-3.7,0-4.9,2.3-4.9,4.7V30H43l-1.3,8.7h-7v20.9C49,57.3,59.9,44.9,59.9,30C59.9,13.4,46.5,0,30,0z"
	/>
<path class="st0" d="M14.5,68.7h-4.2v2.2h4.8v1.6H8.6v-8.6h6.3v1.5h-4.6v1.8h4.2V68.7L14.5,68.7z"/>
<path class="st0" d="M19.4,67.3c-0.6,0-1,0.2-1.2,0.7c-0.1,0.2-0.2,0.6-0.2,1v3.5h-1.7v-6.4H18V67c0.2-0.3,0.4-0.6,0.6-0.7
	c0.3-0.3,0.8-0.4,1.3-0.4c0.7,0,1.2,0.2,1.6,0.5s0.6,0.9,0.6,1.7v4.3h-1.7v-3.9c0-0.3,0-0.6-0.1-0.8C20.2,67.5,19.9,67.3,19.4,67.3
	L19.4,67.3z"/>
<path class="st0" d="M25.5,73.6c0.2,0.2,0.5,0.2,0.9,0.2c0.6,0,1-0.2,1.2-0.6c0.1-0.3,0.2-0.7,0.2-1.3v-0.4
	c-0.2,0.3-0.3,0.5-0.5,0.6c-0.3,0.2-0.8,0.4-1.3,0.4c-0.8,0-1.5-0.3-2-0.9s-0.7-1.4-0.7-2.3s0.2-1.8,0.7-2.4s1.1-1,2-1
	c0.3,0,0.6,0.1,0.8,0.2c0.4,0.2,0.7,0.5,1,0.9v-0.9h1.6v6.1c0,0.8-0.1,1.4-0.4,1.9c-0.5,0.7-1.4,1.1-2.7,1.1c-0.8,0-1.5-0.2-2-0.5
	s-0.8-0.8-0.9-1.4h1.8C25.3,73.4,25.4,73.5,25.5,73.6L25.5,73.6z M25.2,70.3c0.2,0.5,0.6,0.8,1.2,0.8c0.4,0,0.7-0.2,1-0.4
	s0.4-0.8,0.4-1.4c0-0.6-0.1-1.1-0.4-1.4s-0.6-0.5-1-0.5c-0.6,0-1,0.3-1.2,0.8c-0.1,0.3-0.2,0.7-0.2,1.1C25.1,69.7,25.1,70,25.2,70.3
	L25.2,70.3z"/>
<path class="st0" d="M31.1,63.8h1.7v8.6h-1.7C31.1,72.5,31.1,63.8,31.1,63.8z"/>
<path class="st0" d="M36.1,63.8v1.5h-1.7v-1.5H36.1z M36.1,66.1v6.4h-1.7v-6.4H36.1z"/>
<path class="st0" d="M42.1,66.4c0.5,0.3,0.8,0.9,0.9,1.7h-1.7c0-0.2-0.1-0.4-0.2-0.5c-0.2-0.2-0.5-0.3-0.9-0.3
	c-0.4,0-0.6,0.1-0.8,0.2s-0.2,0.2-0.2,0.4c0,0.2,0.1,0.3,0.2,0.4c0.2,0.1,0.7,0.2,1.7,0.5c0.7,0.2,1.2,0.4,1.5,0.7s0.5,0.7,0.5,1.2
	c0,0.6-0.2,1.2-0.7,1.6s-1.2,0.6-2.2,0.6s-1.8-0.2-2.2-0.6s-0.7-1-0.7-1.6H39c0,0.3,0.1,0.5,0.2,0.6c0.2,0.2,0.6,0.3,1.2,0.3
	c0.3,0,0.6-0.1,0.8-0.2s0.3-0.2,0.3-0.4s-0.1-0.3-0.2-0.4s-0.7-0.3-1.7-0.5c-0.7-0.2-1.2-0.4-1.5-0.7s-0.5-0.7-0.5-1.2
	c0-0.6,0.2-1.1,0.7-1.5s1.1-0.6,2-0.6S41.6,66.1,42.1,66.4L42.1,66.4z"/>
<path class="st0" d="M50.2,68.7v3.8h-1.7v-3.9c0-0.3-0.1-0.6-0.2-0.8c-0.2-0.3-0.4-0.4-0.9-0.4s-0.8,0.2-1,0.4s-0.3,0.7-0.3,1.3v3.5
	h-1.7v-8.6h1.7v3.1c0.2-0.4,0.5-0.6,0.8-0.8s0.7-0.2,1-0.2c0.4,0,0.8,0.1,1.1,0.2s0.6,0.3,0.8,0.6c0.2,0.2,0.3,0.5,0.3,0.7
	S50.2,68.2,50.2,68.7L50.2,68.7z"/>
</svg>
