<?xml version="1.0" encoding="utf-8"?>
<!-- Generator: Adobe Illustrator 27.8.1, SVG Export Plug-In . SVG Version: 6.00 Build 0)  -->
<svg version="1.1" id="_レイヤー_1" xmlns="http://www.w3.org/2000/svg" xmlns:xlink="http://www.w3.org/1999/xlink" x="0px"
	 y="0px" viewBox="0 0 59.9 75" style="enable-background:new 0 0 59.9 75;" xml:space="preserve">
<style type="text/css">
	.st0{fill:#FFFFFF;}
</style>
<g id="图层_2">
	<g id="Discord_Logos">
		<g id="Discord_Logo_-_Large_-_White">
			<path class="st0" d="M50.5,10.6c-3.9-1.8-8-3.1-12.2-3.8c-0.6,1-1.1,2.1-1.6,3.2c-4.5-0.7-9-0.7-13.5,0c-0.5-1.1-1-2.2-1.6-3.2
				c-4.2,0.7-8.3,2-12.2,3.8c-7.7,11.6-9.8,23-8.8,34.1l0,0c4.5,3.4,9.6,6,15,7.6c1.2-1.7,2.3-3.4,3.2-5.3c-1.7-0.7-3.4-1.5-5-2.5
				c0.4-0.3,0.8-0.6,1.2-0.9c9.5,4.5,20.4,4.5,29.9,0c0.4,0.3,0.8,0.7,1.2,0.9c-1.6,1-3.3,1.8-5.1,2.5c0.9,1.8,2,3.6,3.2,5.3
				c5.4-1.7,10.4-4.2,15-7.6l0,0C60.5,31.8,57.2,20.6,50.5,10.6z M20.2,37.9c-2.9,0-5.3-2.7-5.3-6s2.3-6,5.3-6s5.4,2.7,5.3,6
				C25.5,35.2,23.2,37.9,20.2,37.9z M39.8,37.9c-2.9,0-5.3-2.7-5.3-6s2.3-6,5.3-6c3,0,5.4,2.7,5.3,6S42.8,37.9,39.8,37.9z"/>
		</g>
	</g>
</g>
</svg>
