<?xml version="1.0" encoding="utf-8"?>
<!-- Generator: Adobe Illustrator 27.8.1, SVG Export Plug-In . SVG Version: 6.00 Build 0)  -->
<svg version="1.1" id="_レイヤー_1" xmlns="http://www.w3.org/2000/svg" xmlns:xlink="http://www.w3.org/1999/xlink" x="0px"
	 y="0px" viewBox="0 0 59.9 75" style="enable-background:new 0 0 59.9 75;" xml:space="preserve">
<style type="text/css">
	.st0{fill:#FFFFFF;}
</style>
<path class="st0" d="M30,0C13.4,0,0,13.4,0,30c0,15,11,27.3,25.3,29.6V38.6h-7.6V30h7.6v-6.6c0-7.5,4.5-11.7,11.3-11.7
	c3.3,0,6.7,0.6,6.7,0.6v7.4h-3.8c-3.7,0-4.9,2.3-4.9,4.7V30H43l-1.3,8.7h-7v20.9C49,57.3,59.9,44.9,59.9,30C59.9,13.4,46.5,0,30,0z"
	/>
<path class="st0" d="M14.9,68.7h-4.2v2.2h4.8v1.6H8.9v-8.6h6.3v1.5h-4.6v1.8h4.2V68.7L14.9,68.7z"/>
<path class="st0" d="M21.1,66.4c0.5,0.3,0.8,0.9,0.9,1.7h-1.7c0-0.2-0.1-0.4-0.2-0.5c-0.2-0.2-0.5-0.3-0.9-0.3
	c-0.4,0-0.6,0.1-0.8,0.2s-0.2,0.2-0.2,0.4c0,0.2,0.1,0.3,0.2,0.4c0.2,0.1,0.7,0.2,1.7,0.5c0.7,0.2,1.2,0.4,1.5,0.7s0.5,0.7,0.5,1.2
	c0,0.6-0.2,1.2-0.7,1.6s-1.2,0.6-2.2,0.6s-1.8-0.2-2.2-0.6s-0.7-1-0.7-1.6H18c0,0.3,0.1,0.5,0.2,0.6c0.2,0.2,0.6,0.3,1.1,0.3
	c0.3,0,0.6-0.1,0.8-0.2s0.3-0.2,0.3-0.4s-0.1-0.3-0.2-0.4s-0.7-0.3-1.7-0.5c-0.7-0.2-1.2-0.4-1.5-0.7c-0.3-0.3-0.5-0.7-0.5-1.2
	c0-0.6,0.2-1.1,0.7-1.5s1.1-0.6,2-0.6S20.6,66.1,21.1,66.4L21.1,66.4z"/>
<path class="st0" d="M28.8,66.8c0.5,0.6,0.8,1.4,0.8,2.4c0,1.1-0.2,2-0.8,2.6s-1.2,0.9-2,0.9c-0.5,0-0.9-0.1-1.3-0.4
	c-0.2-0.1-0.4-0.3-0.5-0.6V75h-1.6v-8.9h1.6V67c0.2-0.3,0.4-0.5,0.6-0.7c0.4-0.3,0.8-0.4,1.3-0.4C27.6,65.9,28.2,66.2,28.8,66.8
	L28.8,66.8z M27.8,69.3c0-0.5-0.1-0.9-0.3-1.3s-0.6-0.6-1.1-0.6c-0.6,0-1,0.3-1.2,0.9c-0.1,0.3-0.2,0.7-0.2,1.2
	c0,0.7,0.2,1.3,0.6,1.6c0.2,0.2,0.5,0.3,0.8,0.3c0.5,0,0.8-0.2,1.1-0.5S27.8,69.9,27.8,69.3L27.8,69.3z"/>
<path class="st0" d="M31,66.8c0.4-0.6,1.2-0.8,2.3-0.8c0.7,0,1.3,0.1,1.9,0.4s0.8,0.8,0.8,1.6v2.9c0,0.2,0,0.4,0,0.7
	c0,0.2,0,0.4,0.1,0.4s0.1,0.1,0.2,0.2v0.2h-1.8c0-0.1-0.1-0.2-0.1-0.4s0-0.2,0-0.4c-0.2,0.2-0.5,0.5-0.8,0.6
	c-0.4,0.2-0.8,0.3-1.2,0.3c-0.6,0-1.1-0.2-1.4-0.5s-0.6-0.8-0.6-1.4c0-0.8,0.3-1.3,0.9-1.7c0.3-0.2,0.8-0.3,1.5-0.4l0.6-0.1
	c0.3,0,0.5-0.1,0.7-0.2c0.2-0.1,0.4-0.3,0.4-0.5c0-0.3-0.1-0.4-0.3-0.5s-0.5-0.2-0.8-0.2c-0.4,0-0.7,0.1-0.8,0.3
	c-0.1,0.1-0.2,0.3-0.2,0.6h-1.6C30.5,67.6,30.7,67.2,31,66.8L31,66.8z M32.2,71.3c0.2,0.1,0.3,0.2,0.6,0.2c0.4,0,0.7-0.1,1-0.3
	s0.5-0.6,0.5-1.2v-0.6c-0.1,0.1-0.2,0.1-0.3,0.2s-0.2,0.1-0.4,0.1l-0.4,0.1c-0.3,0.1-0.6,0.1-0.8,0.2c-0.3,0.2-0.4,0.4-0.4,0.7
	C32,71,32,71.2,32.2,71.3L32.2,71.3z"/>
<path class="st0" d="M40.4,67.3c-0.6,0-1,0.2-1.2,0.7c-0.1,0.2-0.2,0.6-0.2,1v3.5h-1.7v-6.4H39V67c0.2-0.3,0.4-0.6,0.6-0.7
	c0.3-0.3,0.8-0.4,1.3-0.4c0.7,0,1.2,0.2,1.6,0.5s0.6,0.9,0.6,1.7v4.3h-1.7v-3.9c0-0.3,0-0.6-0.1-0.8C41.2,67.5,40.9,67.3,40.4,67.3
	L40.4,67.3z M41.2,65.1c-0.1,0-0.3,0-0.5-0.1c-0.1,0-0.2-0.1-0.4-0.1l-0.5-0.2c-0.1,0-0.1,0-0.2-0.1s-0.1,0-0.2,0
	c-0.2,0-0.3,0-0.4,0.1s-0.2,0.2-0.2,0.4h-0.8c0.1-0.4,0.2-0.7,0.3-0.9c0.2-0.4,0.6-0.6,1.1-0.6c0.1,0,0.2,0,0.3,0s0.2,0,0.3,0.1
	l0.5,0.2c0.2,0.1,0.3,0.1,0.3,0.1s0.1,0,0.2,0c0.2,0,0.3-0.1,0.4-0.2s0.1-0.2,0.2-0.3h0.8c-0.1,0.4-0.2,0.8-0.4,1
	S41.6,65.1,41.2,65.1L41.2,65.1z"/>
<path class="st0" d="M50.1,66.9c0.5,0.7,0.8,1.5,0.8,2.4s-0.3,1.7-0.8,2.4s-1.4,1-2.5,1s-1.9-0.3-2.5-1s-0.8-1.5-0.8-2.4
	s0.3-1.7,0.8-2.4s1.4-1,2.5-1S49.5,66.2,50.1,66.9z M47.6,67.3c-0.5,0-0.9,0.2-1.1,0.5s-0.4,0.8-0.4,1.5s0.1,1.1,0.4,1.5
	s0.6,0.5,1.1,0.5s0.9-0.2,1.1-0.5s0.4-0.8,0.4-1.5s-0.1-1.1-0.4-1.5S48.1,67.3,47.6,67.3z"/>
<path class="st0" d="M52.1,63.8h1.7v8.6h-1.7V63.8z"/>
</svg>
